<?xml version="1.0" encoding="UTF-8"?>
<svg id="Calque_1" data-name="Calque 1" xmlns="http://www.w3.org/2000/svg" version="1.1" viewBox="0 0 1920 1080">
  <defs>
    <style>
      .cls-1 {
        fill: #000;
      }
    </style>
  </defs>
  <path class="cls-1" d="M1105.53,581.63c-10.17,3.24-19.58,7.5-29.41,9-9.15,1.4-18.83.47-28.14-.62-6.18-.72-12.1-3.57-18.16-5.4-18.03-5.46-29.75-17.34-36.76-34.7-7.9-19.56-12.42-39.68-8.83-60.58,11.53-67.21,79.21-93.77,129.44-62.41,1.39.87,2.81,1.69,4.46,2.69,2.63-3.67,4.91-7.32,7.65-10.57,6.57-7.79,12.07-8.71,20.6-3.81,9.58,5.51,12.52,12.26,9.58,21.51-4.07,12.83-8.76,25.53-11.82,38.6-4.32,18.39-2,37.12-.89,55.76,1.99,33.53.14,66.72-12.43,98.34-2.68,6.73-6.94,13.66-12.32,18.37-45.76,40.04-110.12,19.81-132.58-24.85-4.02-8-1.55-19.7,5.17-25.55,4.77-4.15,14.3-3.43,19.65,1.96,3.98,4.01,7.44,8.53,11.09,12.86,15.56,18.44,34.84,25.23,58.07,17.58,4.89-1.61,10.13-5.13,13-9.29,7.37-10.66,11.35-22.92,12.61-35.92.12-1.25.02-2.53.02-2.98ZM1106.31,463.8c-20.19-16.86-47.3-18.23-65.55-2.47-15.81,13.66-20.57,32.51-19.53,52.48,1.49,28.41,26.08,47.44,53.13,42.24,19.28-3.71,30.68-18.48,29.91-37.86-.48-12.11-.3-24.27.04-36.39.17-6.11,1.32-12.18,2-18Z"/>
  <path class="cls-1" d="M881.61,410.84c26.46-.1,46.97,11.35,61.32,33.18,20.76,31.57,28.78,65.45,15.02,102.14-15.81,42.14-64.51,68.6-111.03,44.38-24.16-12.58-37.61-34.99-43.38-61.34-6.33-28.93-.9-56.33,13.62-81.94,13.9-24.51,35.09-36.33,64.45-36.42ZM839.82,506.74c-.39,11.34,2.57,22.53,7.97,33.06,13.55,26.42,51.85,28.73,67.68,3.63,4.57-7.24,7.34-16.06,9.11-24.54,4.34-20.92,1.15-40.67-13.87-56.88-9.45-10.2-21.39-16.7-35.68-13.26-11.12,2.67-19.87,9.69-25.55,20.15-6.33,11.66-10.01,23.9-9.66,37.83Z"/>
  <path class="cls-1" d="M698.92,555.99c13.29,2.22,25.84,4.83,38.52,6.3,14.17,1.64,20.53-4.58,20.75-18.73.08-4.82.17-9.66.59-14.46.59-6.8,4.79-10.28,11.26-11.45,6.51-1.18,12.8,1,15.32,6.72,7.82,17.76,8.07,35.98-1.33,52.96-8.37,15.14-23.19,21.45-39.96,21.04-14.77-.36-29.47-2.88-44.23-4.05-4.16-.33-8.71-.07-12.6,1.29-16.62,5.82-28.41-.82-28.24-18.47.18-19.07,2.61-38.16,4.75-57.16,4.04-35.9,8.66-71.73,12.81-107.62.49-4.21.36-8.9-1.06-12.78-1.22-3.34-4.16-7.31-7.28-8.48-10.52-3.91-8.91-16.15-1.9-20.8,15.44-10.25,39.93-9.1,45.78,15.31,3.35,13.99,4.4,29.23,2.9,43.53-4.31,41.05-10.46,81.9-15.87,122.83-.17,1.28-.15,2.59-.22,4Z"/>
  <path class="cls-1" d="M1243.44,564.59c4.46.81,8.2,1.46,11.93,2.19,4.58.89,6.69,3.6,6.83,8.39.25,8.17-3.36,14.02-10.62,17.04-16.79,6.97-34.37,9.14-51.63,3.1-6.52-2.28-12.83-8-16.9-13.79-6.6-9.39-1.56-18.11,9.96-19.36,4.1-.45,8.24-.5,12.04-.72,1.23-37.15,2.45-73.8,3.65-109.82-5.42-4.02-10.58-7.37-15.15-11.39-4.03-3.56-7.53-7.94-5.46-13.98,2.3-6.7,6.71-12.7,13.83-12.86,10.66-.24,21.45,1.06,32.01,2.77,6.39,1.04,9.48,6.83,10.38,12.82,1.29,8.53,2.56,17.21,2.34,25.78-.7,27.96-2.17,55.89-3.16,83.84-.31,8.57-.05,17.16-.05,25.98Z"/>
  <path class="cls-1" d="M809.01,649.34c.08-6.38,3.18-10.91,8.34-14.48,13.69-9.47,29.36-12.21,45.4-13.65,21.04-1.88,41.74.92,61.68,7.17,9.93,3.11,19.53,8.59,27.98,14.76,11.26,8.22,10.28,24.38-1.14,32.52-2.1,1.5-5.64,1.57-8.42,1.31-2.14-.2-4.37-1.67-6.17-3.08-25.98-20.28-55.5-21.25-86.1-15.65-7.67,1.4-15.04,4.34-22.64,6.16-10.93,2.61-19.02-3.98-18.94-15.07Z"/>
  <path class="cls-1" d="M1248.99,360.93c-.64,17.45-9.66,27.39-24.45,26.94-12.92-.39-27.51-14.95-26.99-26.9.63-14.31,14.74-29.47,26.93-28.94,15.08.66,25.12,12.49,24.51,28.9Z"/>
</svg>